PathFileType	4	(X/Y/Z)	c:\Git\powerlifing_model_clean\simulations\HC835B\Session1\HC835B_OGR_0002\marker_experimental.trc
DataRate	CameraRate	NumFrames	NumMarkers	Units	OrigDataRate	OrigDataStartFrame	OrigNumFrames
240.000000	240.000000	5	38	mm	240.000000	54	218
Frame#	Time	RPSI			LPSI			RASI			LASI			RTH1			RTH2			RTH3			RTH4			RSK1			RSK2			RSK3			RSK4			RCAL1			RCAL2			RCAL3			RST			RPT			RTN			RFMB			RSMB			RVMB			RFMH			RSMH			RVMH			RPM			LTH1			LTH2			LTH3			LTH4			LSK1			LSK2			LSK3			LSK4			LCAL1			LCAL2			LCAL3			LFMH			LVMH			
		X1	Y1	Z1	X2	Y2	Z2	X3	Y3	Z3	X4	Y4	Z4	X5	Y5	Z5	X6	Y6	Z6	X7	Y7	Z7	X8	Y8	Z8	X9	Y9	Z9	X10	Y10	Z10	X11	Y11	Z11	X12	Y12	Z12	X13	Y13	Z13	X14	Y14	Z14	X15	Y15	Z15	X16	Y16	Z16	X17	Y17	Z17	X18	Y18	Z18	X19	Y19	Z19	X20	Y20	Z20	X21	Y21	Z21	X22	Y22	Z22	X23	Y23	Z23	X24	Y24	Z24	X25	Y25	Z25	X26	Y26	Z26	X27	Y27	Z27	X28	Y28	Z28	X29	Y29	Z29	X30	Y30	Z30	X31	Y31	Z31	X32	Y32	Z32	X33	Y33	Z33	X34	Y34	Z34	X35	Y35	Z35	X36	Y36	Z36	X37	Y37	Z37	X38	Y38	Z38	

55	0.225	502.6054992675782	1133.209594726563	-466.9556274414064	394.643524169922	1126.264892578125	-465.8412475585939	568.6820678710939	1049.06689453125	-663.6831054687501	320.8106689453126	1046.055053710938	-660.3291625976564	618.8131713867189	784.2939453125002	-556.2872924804689	612.5194091796876	767.8319702148439	-614.5353393554689	602.0100097656251	702.6824340820314	-572.0000610351564	584.4425048828126	688.0361938476564	-625.8721923828126	517.2387695312501	308.3792114257813	-383.2750549316407	514.5753784179689	270.6881713867188	-432.3840942382814	506.0070190429689	251.1401367187501	-375.4353027343751	492.7066040039064	217.3074035644532	-423.3203125000001	431.2344055175782	125.8526916503907	-257.6949768066407	396.5099182128907	90.9619827270508	-264.0831604003907	459.5482482910157	86.50021362304689	-252.5343780517579	389.7304077148439	95.50769805908205	-334.8517761230469	490.2185974121095	86.94321441650392	-309.8180847167969	408.7644653320314	101.8151016235352	-391.680389404297	415.834442138672	80.28899383544923	-419.4558410644532	465.7645874023439	97.512565612793	-424.8192138671876	503.1964721679689	53.56485748291017	-346.9749755859376	417.8543090820314	46.30719757080079	-470.1210327148439	474.5407714843751	53.21117019653322	-477.6051330566407	527.9669189453126	36.89387512207032	-418.6844482421876	468.3948364257814	38.34941864013673	-535.1151123046876	241.6822967529297	788.5167236328127	-639.4602661132814	244.9216918945313	796.6121826171877	-699.7815551757814	239.6046600341797	716.8675537109376	-685.4951171875001	258.6597290039063	723.9412841796876	-743.7954101562501	278.0698852539063	527.5915527343751	-442.8395385742189	271.7544860839844	473.6609497070314	-441.3239746093751	281.9254455566407	494.2848510742189	-396.9799804687501	290.5871887207032	438.4566650390626	-398.7389221191407	345.6461791992188	506.8008728027345	-246.1851196289063	318.9657592773438	496.0438537597657	-207.7821807861329	377.5007629394532	492.511688232422	-213.5565338134766	383.8778991699219	281.6805725097657	-279.2853088378907	277.1203308105469	308.8945617675782	-233.3957672119141	
56	0.2291666666666667	503.7418212890626	1136.264526367188	-480.6733703613282	395.3860168457032	1129.635131835938	-479.093963623047	568.4265747070314	1051.4853515625	-677.0895996093751	321.2171325683594	1048.929077148438	-673.9494018554689	618.1909179687501	787.2116699218752	-564.8187255859376	611.9082031250001	769.710632324219	-622.7289428710939	601.2536621093751	705.2889404296876	-578.9962158203126	583.7350463867189	689.7211303710939	-632.5344238281251	518.2576904296876	311.9739074707032	-386.0708312988282	515.5206909179689	274.1677246093751	-435.0724182128907	507.1381225585939	254.7353057861329	-378.0308837890626	493.8421325683595	220.6449737548829	-425.7874145507814	433.1394958496095	130.4496154785157	-259.6474609375001	397.902313232422	95.95443725585939	-265.6631164550782	460.9003906250001	90.81524658203126	-254.041732788086	391.4307556152345	99.34214782714847	-336.2578430175782	491.6067199707032	89.86425781250001	-311.2348632812501	410.3737792968751	104.3551025390625	-393.0590820312501	416.8785400390626	82.06529235839845	-420.6997680664064	468.024139404297	99.17987823486331	-427.1882629394532	503.9783630371095	55.43773269653322	-347.9159851074219	418.1544189453126	46.33913803100587	-470.047088623047	474.8989562988282	52.81312942504884	-478.0779418945314	528.2858276367189	36.93436431884766	-418.9014587402345	468.4616699218751	38.33079910278321	-535.1004028320314	242.0878906250001	792.484802246094	-655.0733642578126	245.5445098876954	801.6463623046877	-715.4097290039064	240.4049224853516	721.4615478515626	-702.6137695312501	259.5753479003907	729.4999389648439	-760.3766479492189	278.6772460937501	524.5899658203126	-462.5996398925782	272.5417785644532	470.852996826172	-462.4173278808595	282.0646667480469	490.5843200683595	-417.2520141601564	291.6943969726563	434.6727294921876	-421.318328857422	345.8571166992188	498.280487060547	-265.7725830078126	319.0418701171876	486.2078552246095	-227.9331512451172	377.0178527832032	482.6787109375001	-233.5580139160157	384.3137512207032	274.4745178222657	-306.7015075683594	277.2829589843751	300.0652465820313	-260.3370361328126	
57	0.2333333333333333	504.8302612304689	1139.301513671875	-494.3975830078126	396.0399475097657	1133.004638671875	-492.5473937988282	568.1170043945314	1054.021484375	-690.5156250000001	321.5565185546876	1051.853271484375	-687.4008789062501	617.7011108398439	790.4144287109377	-573.6336059570314	611.2181396484376	771.8447875976565	-631.2159423828126	600.9583740234376	708.3954467773439	-586.2866210937501	582.9894409179689	691.7294311523439	-639.5449829101564	519.3190917968751	315.8101501464844	-389.1341857910157	516.5821533203126	277.8313598632813	-437.9527282714845	508.3839111328126	258.6479492187501	-380.8163452148438	495.1848144531251	224.2186889648438	-428.4756164550782	435.1089477539064	134.500228881836	-263.6330871582032	399.2520446777345	101.1217422485352	-267.6126403808594	462.2606506347657	95.49409484863283	-255.832992553711	393.0051879882814	103.3232040405274	-338.1410827636719	492.9624328613282	93.0398635864258	-312.9103698730469	411.7969360351564	107.0845565795899	-395.1417236328126	417.923309326172	83.84864807128908	-421.9464111328126	469.3887023925782	100.1598052978516	-429.0460510253907	504.7595214843751	57.52246475219728	-349.0823669433594	418.3350219726564	46.56311798095704	-470.1412963867189	475.2386779785157	52.48257446289064	-478.6316833496095	528.5882568359376	37.04120254516602	-419.1433410644532	468.5225830078126	38.36200714111329	-535.0917358398439	242.4077606201172	796.6065063476565	-670.8511352539064	246.0486297607422	806.5361328125002	-731.0546264648439	241.1355438232422	726.2412719726564	-719.2952270507814	260.5318603515626	735.2156372070314	-777.0109863281252	279.2540588378907	521.5453491210939	-482.1592102050782	273.3791809082032	467.8078002929689	-483.665740966797	282.5683898925782	486.2100524902345	-437.8426513671876	292.5666198730469	430.6802062988282	-443.4638977050782	346.1655578613282	489.410858154297	-285.5781250000001	319.2089538574219	476.0117797851564	-248.2615661621094	377.6318969726563	472.7983703613282	-253.7857513427735	384.5747070312501	267.1781616210938	-334.4920654296876	277.5228881835938	291.2286682128907	-287.5374450683594	
58	0.2375	505.8207092285157	1142.427490234375	-508.2105712890626	396.6289672851564	1136.610717773438	-505.8708496093751	567.6463623046876	1056.7666015625	-704.0054321289064	321.9238586425782	1054.734741210938	-701.0802001953126	617.3165283203126	793.789245605469	-582.7072753906251	610.5770263671876	774.2637939453127	-639.9547729492189	600.7508544921876	711.5299072265626	-594.0697631835939	582.2659912109376	694.0548095703126	-646.8963623046876	520.3551025390626	319.7110595703126	-392.3583984375001	517.7941894531251	281.7343139648438	-441.0613403320314	509.6618957519532	262.7079162597657	-383.8566589355469	496.7099914550782	228.093978881836	-431.3510131835939	436.9475402832032	139.6851806640625	-266.4442749023438	400.7056579589845	106.6824188232422	-269.7826843261719	463.6017150878907	100.4824676513672	-257.9294433593751	394.5885009765626	107.4723510742188	-340.2734985351563	494.3215332031251	96.44702911376956	-314.8416442871094	413.5133056640626	109.6181945800782	-396.9367980957032	419.0397033691407	85.71544647216798	-423.4768066406251	470.5292968750001	101.0485458374024	-430.9456176757814	505.4721679687501	59.77376556396486	-350.3732299804688	418.5877685546876	46.78816986083985	-470.2566528320314	475.6130371093751	52.20591735839845	-479.2729492187501	528.9373168945314	37.1396713256836	-419.4790344238282	468.4529724121095	38.28573226928712	-535.1389770507814	242.6253662109376	800.7844238281252	-686.6923828125001	246.544174194336	811.4863891601565	-746.7158203125001	241.8088836669922	731.0083618164064	-736.0512695312501	261.4790649414063	740.7724609375001	-793.4737548828127	279.7762451171876	518.3408813476564	-501.7331848144532	274.2568664550782	464.735321044922	-504.8133544921876	283.1821289062501	481.6541748046876	-458.3841247558595	293.8025512695313	426.4178771972657	-465.8298645019532	346.5986022949219	480.317840576172	-305.5723876953126	319.4058227539063	465.530731201172	-268.8625488281251	377.9607238769532	462.484344482422	-274.2707214355469	384.7891540527345	259.8657531738282	-362.9028015136719	277.7628173828126	282.2766418457032	-315.2262878417969	
59	0.2416666666666667	506.6536865234376	1145.502807617188	-522.0252075195314	397.0960998535157	1140.140380859375	-519.4184570312501	567.0988769531251	1059.175415039063	-717.2933959960939	322.1205749511719	1057.72314453125	-714.7333374023439	617.0141601562501	797.303405761719	-592.1655883789064	609.7907714843751	776.8547363281252	-649.0960693359376	600.5875244140626	714.8977050781251	-602.1581420898439	581.5759277343751	696.5952148437501	-654.5619506835939	521.4432983398439	324.0969543457032	-395.7884216308595	519.1730957031251	285.7990417480469	-444.391326904297	510.9860229492189	266.9823913574219	-387.1210021972657	498.4132080078126	232.0887451171876	-434.5186767578126	437.8525390625001	147.2119293212891	-268.1928405761719	402.3357849121095	112.4512786865235	-272.3809509277344	464.8933715820314	105.7461013793946	-260.3760375976563	396.3081665039064	111.6858139038086	-342.8203735351563	495.6338195800782	100.0355606079102	-317.0529785156251	415.1778259277345	112.4539337158203	-399.2903137207032	420.2269287109376	87.88979339599611	-425.4542236328126	471.9007873535157	101.99609375	-433.280975341797	506.2009277343751	62.20436477661134	-351.8521423339844	418.797088623047	47.05765533447266	-470.4118652343751	475.9411926269532	51.97544097900392	-480.0212402343751	529.2590332031251	37.35383987426759	-419.8184509277345	468.4378356933595	38.25625228881837	-535.1492309570314	242.7786102294922	805.0169067382815	-702.5583496093751	246.9655914306641	816.412292480469	-762.4726562500001	242.4858703613282	735.8143920898439	-752.6488647460939	262.4244995117188	746.2197265625001	-809.9512939453127	280.4042968750001	514.9696044921876	-521.2385253906251	275.1496887207032	461.3952636718751	-526.0286865234376	283.8698120117188	476.9903564453126	-479.1614685058595	294.7411804199219	421.8270874023439	-488.2013549804689	347.0480041503907	470.8396301269532	-325.7518615722657	319.7027587890626	454.7077636718751	-289.7841491699219	378.3414001464844	451.8666381835939	-295.1120300292969	385.2561035156251	252.3343963623047	-390.4007873535157	277.8040466308594	273.3277587890626	-343.3079223632813	
